<svg width="57" height="48" viewBox="0 0 57 48" fill="none" xmlns="http://www.w3.org/2000/svg">
<path d="M8.47805 21.183C8.88396 21.4353 10.1485 22.2764 10.1641 22.2483C10.1641 22.2483 9.75823 21.6736 9.68017 21.5755C8.8059 20.384 8.1502 19.0944 7.69746 17.7207C5.63668 11.511 8.57173 4.96481 14.8946 1.67071C16.0498 1.06796 17.2676 0.619404 18.5477 0.297003C18.7039 0.254951 18.86 0.184864 19.0473 0.268968C19.1254 0.353073 19.1566 0.465213 19.0473 0.549317C18.5634 0.899753 18.4072 1.4184 18.2043 1.90901C17.7203 3.00237 17.3144 4.13778 17.1427 5.30123C16.9085 6.84315 17.4861 8.14677 18.8912 9.07192C20.0933 9.8569 21.8887 9.67467 22.8879 8.70747C23.4967 8.11874 23.6216 7.29171 23.2157 6.53477C22.7786 5.73577 21.998 5.30123 21.1081 5.37132C20.9988 5.38534 20.8739 5.41337 20.7646 5.32927C20.6554 5.17507 20.7803 5.04892 20.8583 4.92276C21.6233 3.84342 22.7786 3.35281 24.1368 3.21263C25.9478 3.03041 27.4622 3.67521 28.8204 4.67045C29.0702 4.85267 29.3044 5.04892 29.5854 5.2732C29.6791 5.02088 29.7571 4.7966 29.8508 4.57232C30.2099 3.61914 30.647 2.69399 31.412 1.93704C32.4111 0.969841 33.6133 0.717527 34.9871 1.22215C36.2673 1.68473 37.2352 2.51176 38.1095 3.42289C39.577 4.92276 40.6699 6.64691 41.7002 8.39909C42.1062 9.09996 42.3247 9.8569 42.7306 10.5998C43.3395 10.3755 43.9328 10.1513 44.526 9.92699C47.0707 8.94577 49.5062 7.7683 51.9885 6.67494C52.8159 6.31049 53.659 5.96005 54.5489 5.74979C56.235 5.32927 57.1248 5.97407 56.9843 7.54402C56.9063 8.45516 56.594 9.32424 56.1257 10.1372C55.9227 10.0251 55.9539 9.87092 56.032 9.70271C56.1569 9.42236 56.2506 9.12799 56.3911 8.84765C56.6565 8.27293 56.6565 7.67018 56.7033 7.06743C56.6721 7.02538 56.6096 7.08145 56.6565 7.05341C56.6721 7.03939 56.6877 7.05341 56.6877 7.06743C56.7189 7.22162 56.7033 7.38983 56.7033 7.54402C56.7033 7.61411 56.6877 7.6842 56.5784 7.65616C56.4379 7.50197 56.4847 7.31974 56.4847 7.15153C56.4535 6.31049 55.9852 5.97407 55.0641 6.12826C54.221 6.26844 53.4248 6.57682 52.6598 6.92726C51.1611 7.58608 49.6623 8.27293 48.1636 8.94577C46.6492 9.6186 45.1193 10.2494 43.5581 10.8101C43.4176 10.8662 43.2614 10.8942 43.1053 11.0624C43.2927 11.7493 43.5268 12.4641 43.8235 13.151C44.0576 13.1931 44.1669 13.0669 44.2918 12.9968C45.0724 12.5483 45.7593 12.0016 46.4619 11.4689C46.5399 11.4128 46.618 11.3428 46.7117 11.3007C46.8366 11.2306 46.9615 11.2446 47.0707 11.3428C47.18 11.4409 47.18 11.553 47.1176 11.6652C47.0551 11.7773 46.9615 11.8474 46.8678 11.9315C44.9163 13.5715 42.6526 14.749 40.1547 15.59C38.6715 16.0947 37.1259 16.4171 35.5491 16.5713C32.7078 16.8376 29.9288 16.6133 27.2124 15.8143C26.9938 15.7582 26.7908 15.6741 26.744 15.4358C26.8533 15.1695 27.0875 15.1975 27.3217 15.2396C27.8212 15.3377 28.2896 15.5059 28.7892 15.59C28.9453 15.6181 29.0858 15.6741 29.3044 15.6181C29.1795 15.0854 29.117 14.5387 28.9765 13.992C28.6331 13.8939 28.3052 13.922 27.993 13.95C27.6339 13.992 27.2748 14.0061 26.9001 14.0061C25.7448 13.992 24.5896 14.1322 23.4343 14.0762C21.6233 13.978 19.7967 14.0061 17.9857 14.0201C17.2676 14.0201 16.5494 14.0762 15.8781 14.2724C15.4566 14.3986 15.0663 14.5527 14.9882 15.0153C14.9726 15.0854 14.957 15.1555 14.9102 15.2256C14.6604 15.2957 14.8165 15.0714 14.7541 15.0434C14.7228 15.2396 14.7853 15.4779 14.5043 15.59C14.2076 15.2116 14.2545 14.7069 14.6292 14.3004C14.9258 13.992 15.2849 13.7678 15.722 13.6696C16.3152 13.5295 16.9241 13.4454 17.533 13.4454C18.3604 13.4454 19.1878 13.4033 20.0153 13.4313C22.2322 13.4734 24.4491 13.4454 26.6816 13.4454C27.2592 13.4454 27.8525 13.3613 28.4301 13.3613C28.5862 13.3613 28.7423 13.3332 28.8985 13.2071C28.836 12.7305 28.9141 12.2118 28.836 11.7072C28.6955 10.754 28.8516 9.80083 28.8985 8.84765C28.9453 7.90848 29.1014 6.99734 29.32 6.07219C29.3668 5.87595 29.3356 5.70774 29.1639 5.55355C28.4145 4.90874 27.5871 4.33403 26.6035 3.98359C25.0891 3.43691 23.6372 3.54905 22.2478 4.32001C21.9824 4.43215 21.795 4.60036 21.6233 4.81062C21.7482 4.96481 21.9512 4.89473 22.0917 4.9508C23.4031 5.38534 24.1993 6.5628 24.0119 7.79634C23.9183 8.37105 23.5904 8.87568 23.0752 9.25415C21.1862 10.6138 18.5477 10.1092 17.33 8.17481C16.6119 7.02538 16.4245 5.83389 16.7836 4.55831C17.1115 3.39486 17.4705 2.23141 18.0169 1.13805C18.0326 1.096 18.0638 1.05395 18.0013 0.983858C17.814 0.983858 17.6423 1.06796 17.4705 1.12403C13.911 2.35757 11.2414 4.44617 9.39916 7.37581C8.39999 8.95979 7.82235 10.6699 7.66623 12.4922C7.33838 16.0947 8.41561 19.3467 10.8667 22.2203C11.0228 22.4025 11.2726 22.5988 11.054 22.8371C10.8355 23.0754 10.5701 22.9071 10.3515 22.809C9.64895 22.5147 9.00886 22.1502 8.39999 21.7297C8.25949 21.6456 8.11898 21.5475 8.07214 21.3933C8.08776 21.1269 8.32193 21.2391 8.47805 21.183Z" fill="#1D1812"/>
<path d="M14.4262 15.5334C14.3949 15.2951 14.6604 15.169 14.5979 14.9166C14.7696 15.0008 14.6916 14.9867 14.8009 15.0708C14.8633 15.0989 14.8945 15.2951 14.9101 15.3512C15.519 16.7529 16.7367 17.6641 18.0325 18.4771C21.2017 20.4816 24.7925 21.5049 28.6018 21.9955C29.8351 22.1497 31.0841 22.2338 32.3174 22.2338C33.785 22.2338 35.2369 22.1076 36.6888 21.8833C39.5458 21.4348 42.2935 20.6778 44.8538 19.4443C47.0083 18.407 49.0222 17.1735 50.8176 15.6596C51.9885 14.6783 53.0033 13.599 53.9712 12.4776C54.1585 12.2673 54.3459 12.0571 54.4552 11.8048C54.6737 11.3983 55.0328 11.0618 55.2514 10.6553C55.6417 9.95447 55.9851 9.22556 56.2505 8.46862C56.2974 8.35648 56.2818 8.24434 56.2974 8.11818C56.3598 7.94997 56.313 7.73971 56.5472 7.64159C56.7189 7.43133 56.5628 7.19303 56.7033 6.96875C56.7033 7.16499 56.7345 7.36124 56.6877 7.54347C56.6252 7.8098 56.7033 8.06211 56.6408 8.32844C56.5159 8.79102 56.2818 9.22556 56.11 9.67412C56.0476 9.82831 56.032 9.95447 56.0944 10.1087C55.9071 10.2068 55.8134 10.389 55.7353 10.5432C55.4856 11.0759 55.1577 11.5665 54.7674 12.0291C54.6737 12.1272 54.7674 12.1692 54.7674 12.2113C54.0024 13.3467 53.0345 14.3279 52.0041 15.2671C50.318 16.809 48.429 18.1126 46.3682 19.22C46.2433 19.2901 46.1184 19.3462 45.9779 19.4303C46.1965 20.1732 46.3838 20.9161 46.5399 21.6731C47.0083 24.1822 47.0239 26.6913 46.6336 29.2004C46.6336 29.2425 46.6024 29.2845 46.5868 29.3266C46.4931 29.4948 46.4775 29.677 46.415 29.8452C46.3526 30.0415 46.2433 30.1817 46.0403 29.9434C45.9935 29.691 46.0716 29.4387 46.1184 29.1864C46.3994 27.6305 46.4931 26.0605 46.3682 24.5046C46.2589 23.0748 46.0872 21.631 45.6344 20.2433C45.6032 20.1311 45.6032 20.005 45.4783 19.9069C45.2597 19.8648 45.0724 19.9629 44.8851 20.0611C43.4175 20.7759 41.8563 21.2946 40.2483 21.7291C40.1702 21.7431 40.0922 21.7712 40.0297 21.7992C38.9057 22.0655 37.7816 22.3459 36.6107 22.444C36.1424 22.3879 35.6896 22.3459 35.2369 22.4861C35.0183 22.5562 34.7529 22.5702 34.5031 22.5141C34.347 22.4861 34.1597 22.4721 34.0035 22.5141C33.3947 22.7104 32.7702 22.6683 32.1457 22.6122C31.5212 22.5702 30.8968 22.5982 30.2879 22.5702C30.0069 22.5562 29.7571 22.5141 29.4917 22.458C28.9921 22.3599 28.4769 22.3599 27.9617 22.416C27.1343 22.444 26.3537 22.2057 25.5575 22.0375C23.5279 21.603 21.592 20.9442 19.7498 20.0751C18.2355 19.3602 16.8304 18.5191 15.6595 17.3977C15.2068 16.9772 14.8165 16.5146 14.5355 15.982C14.4574 15.8839 14.3013 15.6876 14.4262 15.5334Z" fill="#1D1812"/>
<path d="M8.39971 41.0034C6.38577 39.2933 4.66846 37.3729 3.49756 35.0881C0.281504 28.8503 0.172221 22.5565 3.12288 16.2066C3.35706 15.7019 3.65368 15.2254 3.91909 14.7347C3.98153 14.6226 4.04398 14.4824 4.21571 14.5105C4.40306 14.5385 4.40306 14.6787 4.41867 14.8048C4.66846 16.515 5.46467 18.0429 6.57312 19.4306C6.6824 19.5708 6.85413 19.6689 6.93219 19.8371C6.83852 20.0053 7.01025 20.1735 6.91658 20.3417C6.88535 20.3557 6.83852 20.3557 6.80729 20.3417C6.54189 20.2015 6.38577 19.9633 6.19843 19.753C5.21488 18.6036 4.49673 17.328 4.10643 15.9122C4.07521 15.8281 4.07521 15.73 3.98153 15.6459C3.38828 16.7112 2.91992 17.8046 2.54524 18.926C2.03004 20.4819 1.67097 22.0799 1.5773 23.7059C1.42118 26.3973 1.67097 29.0606 2.56085 31.6538C3.23216 33.6163 4.15326 35.4666 5.43344 37.1767C6.15159 38.1439 7.02586 39.027 7.85329 39.9101C7.9938 40.1204 8.21237 40.2745 8.3841 40.4428C8.49338 40.5409 8.61828 40.639 8.57144 40.7932C8.55583 40.9193 8.49338 40.9754 8.39971 41.0034Z" fill="#191611"/>
<path d="M46.1341 29.9997C46.3215 30.0978 46.3683 29.9716 46.3683 29.8595C46.3683 29.6492 46.462 29.509 46.6181 29.3689C46.6025 29.5511 46.5869 29.7333 46.5713 29.9576C47.0396 29.8595 47.3987 29.6352 47.7422 29.3829C48.4447 28.8502 48.9599 28.1774 49.4907 27.5186C49.678 27.2663 49.881 27.028 50.0996 26.7897C50.1932 26.6915 50.3181 26.6074 50.4742 26.6635C50.646 26.7056 50.6928 26.8457 50.724 26.9859C50.7396 27.07 50.7396 27.1541 50.724 27.2242C50.365 28.9343 49.6936 30.5183 48.3354 31.8079C48.0388 32.0882 47.7109 32.3265 47.3206 32.5088C47.0552 32.4527 47.1177 32.2845 47.1801 32.1163C47.4767 31.7939 47.9139 31.6117 48.1793 31.2612C48.5852 30.8267 48.913 30.3641 49.2097 29.8735C49.4595 29.439 49.6624 28.9904 49.7873 28.5138C49.8342 28.2755 49.881 28.0372 50.0215 27.8269C50.0996 27.7148 50.1152 27.5887 50.1776 27.4625C50.0683 27.5466 50.0059 27.6447 49.9591 27.7428C49.4282 28.4577 48.8506 29.1446 48.1325 29.7333C46.9928 30.6585 45.5409 30.7566 44.2139 30.0277C43.3708 29.5651 42.6527 28.9483 41.9345 28.3456C41.3725 27.883 40.7636 27.4625 39.9674 27.3504C39.2649 27.2382 38.2033 27.6728 37.8442 28.2194C37.6256 28.5559 37.5476 28.9063 37.7661 29.2848C37.8754 29.481 37.9847 29.6773 38.1096 29.8735C38.2501 30.1258 38.6092 30.2379 38.6092 30.5744C38.4374 30.8127 38.2969 30.7145 38.1252 30.5603C37.7973 30.252 37.5319 29.9015 37.329 29.509C37.2665 29.3969 37.1885 29.3128 37.1104 29.2287C36.845 28.654 37.0324 28.1494 37.4539 27.7148C38.1408 26.9859 39.0307 26.6495 40.0923 26.7616C41.0602 26.9298 41.794 27.4625 42.5122 28.0232C43.1991 28.5559 43.8079 29.1726 44.6198 29.5651C44.6822 29.6072 44.7447 29.6352 44.8071 29.6632C45.1974 29.9015 45.6658 29.9296 46.1341 29.9997Z" fill="#211C17"/>
<path d="M45.3535 33.8405C44.4792 36.3076 43.0273 38.5083 41.2164 40.4988C38.6248 43.3443 35.4712 45.5451 31.6462 46.9047C31.4433 46.9748 28.3053 48.1523 24.3086 47.5636C24.0588 47.3954 30.9593 46.8206 31.1154 46.7646C31.4589 46.6244 31.818 46.4982 32.177 46.4141C32.4581 46.344 32.661 46.1478 32.942 46.1057C32.9576 46.1057 32.8952 46.0637 32.8796 46.0357C32.8952 45.8534 33.0669 45.8254 33.1918 45.7693C35.0028 44.9703 36.6264 43.891 38.1408 42.6995C39.9206 41.3118 41.3725 39.6858 42.637 37.9055C42.9961 37.4009 43.2927 36.8542 43.6674 36.3496C43.6986 36.3216 43.7299 36.3076 43.7611 36.2795C44.2451 35.7328 44.4792 35.088 44.729 34.4292C44.8383 34.1208 44.9476 33.8125 45.2755 33.6162C45.3691 33.6723 45.416 33.7284 45.3535 33.8405Z" fill="#191611"/>
<path d="M8.3999 41.0035C8.41551 40.9194 8.44674 40.8493 8.55602 40.8493C8.72775 40.7932 8.6653 40.8072 8.82142 40.8072C9.52396 41.3119 10.3982 41.9707 11.0227 42.5594C11.1944 42.7977 11.4286 42.9519 11.7252 43.022C12.5371 43.4565 13.2708 43.9892 14.0826 44.4377C15.4409 45.1947 16.846 45.8535 18.3291 46.3862C18.7974 46.5544 19.2658 46.7226 19.7654 46.7927C20.827 47.087 21.9042 47.2693 23.0127 47.2553C23.1688 47.2553 23.3249 47.2693 23.4654 47.2132C24.0274 47.1011 24.0743 47.1151 24.1992 47.5356C24.2616 47.4235 24.3553 47.3534 24.5114 47.3814C25.495 47.5636 27.0562 47.5917 28.0553 47.6057C28.1178 47.6197 26.3692 47.7459 25.7291 47.6898C25.2139 47.6477 24.73 47.6618 24.2148 47.7178C22.0447 47.9281 19.984 47.4936 17.9856 46.7787C14.7696 45.6292 11.9594 43.8911 9.36784 41.8445C9.0556 41.5642 8.72775 41.2838 8.3999 41.0035Z" fill="#191611"/>
<path d="M27.509 47.6898C26.463 47.7599 25.4326 47.6337 24.4178 47.4655C24.2929 47.4515 24.3398 47.6197 24.1992 47.6337C24.1368 47.5076 24.0587 47.3674 23.9963 47.2272C23.8246 47.2553 23.6841 47.2833 23.5279 47.3113C23.3562 47.3814 23.2001 47.3113 23.044 47.2553C21.4359 46.6385 20.0933 45.7414 19.0941 44.4237C18.86 44.1154 18.6258 43.7789 18.5477 43.4005C18.7195 43.1341 18.7975 43.1341 19.0941 43.4285C19.5001 43.9051 19.8435 44.4378 20.3119 44.8723C21.6857 46.1619 23.3406 46.9469 25.3077 47.2272C25.495 47.2553 25.698 47.2833 25.8853 47.3113C26.5254 47.3534 27.1499 47.3674 27.79 47.2973C29.4136 47.1291 30.9592 46.7226 32.4579 46.1199C32.5985 46.0638 32.739 45.9797 32.8951 46.0358C33.0044 46.0358 33.1136 46.1058 33.2385 46.0778C32.6609 46.3301 32.0833 46.5824 31.4588 46.7506C31.2871 46.7927 28.5237 47.6057 27.509 47.6898Z" fill="#191611"/>
<path d="M45.2755 33.6303C44.8696 34.1629 44.7135 34.7797 44.4637 35.3684C44.3232 35.7189 44.089 36.0693 43.7923 36.3637C43.6831 36.2235 43.7923 36.0973 43.8548 35.9852C44.0421 35.6628 44.1983 35.3404 44.3232 35.004C44.3388 34.976 44.3544 34.9339 44.37 34.9059C44.6042 34.5134 44.6822 34.0648 44.8852 33.6583C44.932 33.5602 45.0101 33.4761 44.9164 33.3639C44.4168 33.2798 43.9016 33.3499 43.3864 33.3079C42.7932 33.1957 42.1999 33.0976 41.6223 32.9014C40.67 32.607 39.8425 32.1164 39.0619 31.5557C38.7341 31.3314 38.4531 31.0791 38.172 30.8268C37.7974 30.5044 37.4695 30.154 37.2509 29.7334C37.1729 29.5933 37.0168 29.4391 37.1729 29.2568C37.4539 29.3269 37.4851 29.5933 37.5476 29.7474C37.6881 30.154 38.1408 30.3222 38.2813 30.6586C38.4374 30.7006 38.4843 30.5885 38.5623 30.5745C38.7965 30.5324 38.9214 30.6866 39.0619 30.7988C39.8113 31.3875 40.6387 31.9061 41.5598 32.2566C43.3084 32.9294 45.0569 33.0556 46.8055 32.2285C46.9303 32.1725 47.0552 32.0884 47.1958 32.1725C47.1333 32.2986 47.1177 32.4248 47.2738 32.5089C47.2114 32.5369 47.1645 32.5649 47.1021 32.593C46.5088 32.621 46.0092 32.8874 45.4784 33.0415C45.3848 33.2518 45.4941 33.4901 45.2755 33.6303Z" fill="#241A10"/>
<path d="M8.47809 21.1822C8.25952 21.1962 8.54053 21.3083 8.44686 21.3364C8.32197 21.4345 8.21268 21.1542 8.08779 21.3364C7.99412 21.3644 7.90044 21.3364 7.838 21.2803C7.51015 21.042 7.22913 20.7757 6.96373 20.4953C6.91689 20.4533 6.90128 20.3972 6.9325 20.3271L6.94812 20.3131C7.02618 20.243 6.97934 20.201 6.9325 20.1309C6.85444 20.0187 6.88567 19.9346 7.02618 19.8926C7.22913 20.0888 7.43209 20.271 7.63504 20.4673C7.58821 20.5234 7.49453 20.4953 7.43209 20.5234C7.51015 20.5514 7.57259 20.5093 7.63504 20.4813C7.90044 20.7196 8.19707 20.9439 8.47809 21.1822Z" fill="#1F1D19"/>
<path d="M45.2754 33.6305C45.291 33.4343 45.4159 33.238 45.2442 32.9717C45.9311 32.9016 46.4151 32.383 47.1176 32.5792C46.6961 32.8876 46.1653 32.9717 45.6813 33.1399C45.5096 33.3502 45.5408 33.6305 45.3535 33.8268C45.3223 33.7707 45.291 33.7006 45.2754 33.6305Z" fill="#211C17"/>
<path d="M54.7986 12.2393C54.7674 12.1973 54.7206 12.1412 54.6893 12.1132C55.0016 11.5665 55.4543 11.1039 55.6729 10.5152C55.7353 10.347 55.829 10.1367 56.11 10.1367C55.7822 10.8796 55.345 11.5945 54.7986 12.2393Z" fill="#1D1812"/>
<path d="M7.01051 19.9067C6.96368 20.1029 6.96368 20.1029 7.10418 20.2991C7.05735 20.3552 6.9949 20.3412 6.93245 20.3412C6.90123 20.173 6.62021 20.0048 6.94806 19.8506C6.96368 19.8646 6.9949 19.8786 7.01051 19.9067Z" fill="#1F1D18"/>
<path d="M6.93256 20.3411C7.27602 20.7196 7.65071 21.056 8.08784 21.3363C8.86844 22.0512 10.6014 22.9063 11.0229 22.7941C11.1322 22.6119 10.976 22.5138 10.8824 22.4017C8.99333 20.3131 7.91611 17.9161 7.58826 15.2668C7.13551 11.6783 8.13468 8.41225 10.6014 5.55269C12.5216 3.33794 14.9415 1.76798 17.9234 0.870868C18.0014 0.842834 18.0951 0.828816 18.2356 0.800781C18.0326 1.27737 17.8297 1.6979 17.6423 2.14646C17.2833 3.02955 16.971 3.94069 16.7681 4.86584C16.3934 6.61802 16.9242 8.10387 18.4698 9.2533C19.7812 10.2205 21.8107 10.1364 23.0597 9.09911C24.4023 7.97771 24.012 5.91715 22.2947 5.16021C22.1854 5.11815 22.0917 5.0761 21.9825 5.03405C21.6858 4.96396 21.6858 4.96396 21.5765 4.76772C21.6858 4.57147 21.9044 4.45933 22.0605 4.30514C23.247 3.53418 24.5584 3.39401 25.9479 3.70239C27.3686 4.02479 28.477 4.79575 29.4762 5.73492C29.1639 6.99649 28.9922 8.25806 28.9142 9.54766C28.8361 10.8233 28.8985 12.0988 28.9922 13.4165C28.2585 13.5146 27.5559 13.5146 26.8534 13.5426C24.3555 13.6267 21.842 13.5567 19.344 13.5286C18.2668 13.5146 17.1896 13.5146 16.128 13.6968C15.7533 13.7529 15.3942 13.851 15.0664 14.0332C14.4263 14.3977 14.2858 15.0285 14.4887 15.5892C14.6136 15.9677 14.8478 16.3461 15.1132 16.6685C16.0968 17.888 17.4238 18.7711 18.8445 19.5421C21.5765 20.9999 24.5272 21.897 27.6496 22.3736C27.7276 22.3876 27.8057 22.3876 27.8838 22.3876C28.2741 22.4017 28.6644 22.3876 29.0234 22.5418C28.8361 22.8362 28.6644 23.1306 28.4458 23.3969C27.8838 24.0837 27.0719 24.2239 26.1821 24.1398C25.6513 24.0978 25.1205 24.0277 24.5897 23.9856C23.5437 23.8735 22.1698 24.5744 21.6546 25.4154C21.0614 26.3686 21.1706 27.3078 21.6234 28.2469C21.9512 28.9478 22.4352 29.5786 22.8723 30.2234C23.2626 30.7981 23.6061 31.3728 23.8247 32.0176C24.3555 33.5455 23.6529 34.9753 22.0605 35.6762C21.0457 36.1107 19.9841 36.321 18.8757 36.4191C17.6423 36.5312 16.3934 36.6153 15.2069 37.0218C14.1297 37.4003 13.3022 37.9891 12.9744 39.0123C12.6934 39.9094 12.8963 40.7785 13.3334 41.5915C14.4575 43.6381 16.3309 45.0118 18.4542 46.1612C18.5947 46.2313 18.8601 46.2453 18.7664 46.4976C18.6103 46.5397 18.4698 46.4976 18.3137 46.4696C17.4082 46.2033 16.5807 45.8108 15.7377 45.4183C14.317 44.7595 13.0212 43.9324 11.7254 43.0914C9.61781 41.6336 7.15112 39.2787 6.77644 38.9002C3.96629 35.9425 2.4051 32.4802 1.7494 28.6815C1.09369 24.8547 1.51522 21.098 3.04519 17.4675C3.29498 16.8507 3.62283 16.262 3.90384 15.6733C3.95068 15.5892 4.01313 15.5051 4.1068 15.3649C4.38781 16.4583 4.7625 17.4395 5.34014 18.3506C5.76166 19.0515 6.26124 19.7524 6.93256 20.3411Z" fill="#F4B740"/>
<path d="M56.5784 7.66958C56.4379 7.80975 56.5316 8.02002 56.4067 8.16019C56.1881 8.84705 55.8135 9.47783 55.3919 10.0806C53.8307 12.3374 51.8168 14.2297 49.5062 15.8558C47.1332 17.5098 44.5416 18.8135 41.7003 19.7246C39.4522 20.4395 37.1416 20.9301 34.7686 21.1263C31.693 21.3786 28.6487 21.2104 25.6512 20.5796C23.4343 20.1171 21.3267 19.4302 19.3284 18.463C17.7984 17.7201 16.3933 16.837 15.2381 15.6595C15.0663 15.4773 14.879 15.2811 14.8165 15.0428C14.8165 14.5521 15.2224 14.3699 15.6283 14.2297C16.284 14.0055 16.971 13.9494 17.6579 13.9354C19.0317 13.9214 20.4056 13.9073 21.7795 13.9494C24.0744 14.0055 26.3694 13.9634 28.6643 13.8373C28.7736 13.8373 28.8673 13.8373 29.0078 13.8373C29.1327 14.4961 29.2576 15.1409 29.3825 15.8418C28.7892 15.7717 28.2584 15.6315 27.712 15.4913C27.509 15.4352 27.3217 15.3792 27.1187 15.3371C26.9782 15.2951 26.8377 15.2811 26.744 15.4352C26.7284 15.6455 26.9158 15.6735 27.0719 15.7156C29.5074 16.4305 32.0053 16.6968 34.5656 16.5566C38.9994 16.3043 42.8712 14.8185 46.259 12.2813C46.54 12.0711 46.8366 11.8468 47.0552 11.6085C47.0552 11.4543 46.9615 11.3842 46.7742 11.3562C45.8531 12.1131 44.8695 12.842 43.7298 13.4728C43.4332 12.6318 43.1522 11.8328 42.8712 11.0198C43.0117 10.8796 43.199 10.8515 43.3708 10.7955C46.3058 9.75818 49.0847 8.41251 51.9105 7.15094C52.7535 6.77246 53.581 6.40801 54.4864 6.16971C54.5333 6.1557 54.5801 6.14168 54.6426 6.12766C56.0633 5.79124 56.6253 6.18373 56.5784 7.51539C56.5628 7.55744 56.5784 7.61351 56.5784 7.66958Z" fill="#E8AD76"/>
<path d="M41.4661 8.91779C38.4686 10.6279 32.0677 11.5811 29.2887 10.7401C29.2575 9.84294 29.3356 8.93181 29.4605 8.03469C29.6166 6.77312 29.8976 5.52557 30.3816 4.32007C30.6626 3.6192 31.0373 2.94636 31.5525 2.35763C32.5048 1.30632 33.7069 1.06802 35.0652 1.65676C36.2673 2.18942 37.204 3.01645 38.047 3.91356C39.4209 5.3854 40.4825 7.01142 41.388 8.73556C41.4192 8.79163 41.4348 8.8477 41.4661 8.91779Z" fill="#E8AD76"/>
<path d="M19.2659 18.3088C21.8731 19.5844 24.6676 20.3693 27.5871 20.8039C29.6322 21.1123 31.693 21.1964 33.7538 21.0842C36.845 20.916 39.8424 20.2992 42.7307 19.2479C44.6821 18.533 46.5087 17.6219 48.2417 16.5426C49.9902 15.4492 51.567 14.1876 52.9877 12.7859C54.2991 11.4963 55.4075 10.0665 56.2194 8.45451C56.2662 8.35639 56.516 7.58543 56.5784 7.4873C56.6253 8.30032 56.0164 9.36564 55.7666 9.94036C55.47 10.6272 55.0329 11.258 54.5489 11.8607C54.3772 12.071 54.2367 12.3093 54.0805 12.5055C53.4717 13.3326 52.7691 14.0615 52.0041 14.7764C50.4586 16.2342 48.7256 17.4958 46.821 18.5611C43.402 20.4955 39.6707 21.6589 35.6741 22.1355C33.3167 22.4159 30.9436 22.3878 28.5706 22.1075C25.8854 21.7851 23.3094 21.1263 20.8739 20.089C18.9537 19.276 17.1895 18.2807 15.7688 16.8369C15.238 16.2903 14.9102 15.7856 14.8009 15.0287C16.003 16.5145 17.5174 17.4537 19.2659 18.3088Z" fill="#B0794E"/>
<path d="M29.8664 15.8556C29.7103 15.3931 29.6478 14.9585 29.5854 14.4539C34.269 14.9305 38.6871 14.2717 42.8868 12.3232C43.0429 12.7718 43.2146 13.1503 43.3083 13.6128C41.9657 14.4259 40.4981 15.0146 38.9369 15.4351C35.9707 16.2481 32.9576 16.3743 29.8664 15.8556Z" fill="#E25229"/>
<path d="M29.4761 14.0477C29.4293 13.6132 29.398 13.2207 29.3668 12.7581C31.5993 12.9964 33.8162 12.9964 36.0019 12.66C38.1876 12.3236 40.2639 11.6648 42.2623 10.7256C42.4184 11.1461 42.5589 11.5386 42.715 11.9731C38.5466 13.9075 34.1441 14.5804 29.4761 14.0477Z" fill="#FAE9A4"/>
<path d="M29.3668 11.1739C33.7538 11.7346 37.8441 11.1179 41.6846 9.26758C41.872 9.57596 42.0437 10.0385 42.0749 10.375C38.1407 12.2533 33.9723 12.8981 29.4917 12.3794C29.4449 12.001 29.4137 11.6085 29.3668 11.1739Z" fill="#ACDB45"/>
<path d="M21.9668 5.0209C21.6857 4.9368 21.514 4.92278 21.3423 4.90876C21.5296 4.67046 21.7326 4.44618 22.0448 4.29199C22.2946 4.12378 21.7326 4.57234 21.6389 4.74055" fill="#F4B740"/>
<path d="M28.9608 22.556C28.6017 22.4719 27.9773 22.4298 27.6182 22.3597C28.1022 22.2616 28.8359 22.2616 29.3199 22.3597C29.8975 22.4719 30.4596 22.5139 31.0372 22.4999C31.5836 22.4859 32.1456 22.556 32.6921 22.556C33.1136 22.57 33.5351 22.584 33.9566 22.4438C34.3157 22.3317 34.6904 22.5139 35.0651 22.4298C35.5803 22.3037 36.0955 22.2476 36.6263 22.3597C36.595 22.5139 36.4545 22.5279 36.3296 22.542C35.2212 22.7102 34.1127 22.8083 32.9887 22.8083C32.3642 22.8363 31.7241 22.7802 31.0372 22.8503C31.1465 23.3409 31.3026 23.7755 31.3963 24.2381C31.5992 24.981 31.6773 25.7519 31.7866 26.5509C32.3174 26.5089 32.7857 26.3267 33.3009 26.3407C34.1127 26.3967 34.8153 26.635 35.3929 27.1677C35.7208 27.4761 35.9393 27.7985 36.0018 28.219C36.0955 29.1301 35.4554 29.6628 34.7528 30.1674C34.2376 30.5319 33.6444 30.7702 33.0667 30.9945C32.6764 31.1346 32.2705 31.2608 31.849 31.3449C31.6461 31.387 31.4899 31.4711 31.4431 31.6673C31.3338 32.2 31.1153 32.6906 30.9435 33.2092C29.9287 35.8305 28.1802 37.9331 25.5418 39.4189C24.9954 39.7273 24.3709 39.9236 23.7776 40.1619C23.3873 40.3161 23.1688 40.1479 23.1844 39.6853C23.2 38.8583 22.2633 38.1994 21.6388 38.1434C20.7958 38.0733 20.0776 38.3256 19.5 38.8723C18.9848 39.3489 18.7506 39.9376 18.6413 40.5964C18.4696 41.5216 18.7506 42.3766 19.0785 43.2177C19.0785 43.3018 19.0785 43.3719 19.0004 43.4279C18.8755 43.3578 18.7818 43.0635 18.5945 43.3719C18.454 43.3578 18.3915 43.2597 18.3603 43.1616C17.7983 41.7038 17.689 40.26 18.6413 38.8863C19.3126 37.9191 20.7333 37.3303 21.8418 37.5686C22.7785 37.7789 23.4186 38.2976 23.7308 39.1246C23.762 39.2087 23.7776 39.2788 23.8245 39.3489C23.8401 39.3629 23.8557 39.3769 23.8869 39.3909C26.3848 39.1526 30.4752 34.5128 30.7406 31.5972C30.6001 31.4991 30.4439 31.5411 30.2878 31.5552C28.8047 31.6112 27.384 31.429 26.0414 30.8543C23.965 29.9852 22.6068 28.5554 22.1228 26.5229C22.0603 26.2846 22.0603 26.0323 22.0759 25.794C22.0916 25.5837 22.1696 25.4015 22.4038 25.3174C22.638 25.2473 22.8097 25.3314 22.9658 25.4716C23.1844 25.6538 23.3561 25.8501 23.5122 26.0603C23.8089 26.4668 24.1836 26.8313 24.5582 27.1817C25.6667 28.205 26.9781 28.4293 28.4456 27.9947C29.2887 27.7424 30.0536 27.3359 30.8342 26.9855C31.1465 26.8453 31.0996 26.579 31.084 26.3407C30.9747 25.3735 30.803 24.4203 30.5064 23.4811C30.2722 22.7522 30.2722 22.7522 29.4292 22.6681C29.2887 22.6681 29.0857 22.7242 28.9608 22.556Z" fill="#1D1812"/>
<path d="M40.0454 21.7292C41.6846 21.2807 43.277 20.734 44.807 20.0612C45.2129 19.8929 45.3378 19.935 45.4159 20.3275C45.4939 20.762 45.5564 21.1966 45.5564 21.6451C45.5408 22.1077 45.5252 22.5703 45.6032 23.0329C45.6657 23.3553 45.6344 23.6777 45.5876 24.0141C45.5564 24.2524 45.6032 24.4626 45.8686 24.6168C46.1028 24.757 46.1965 25.4439 46.0247 25.6401C45.9467 25.7242 45.8374 25.6962 45.7281 25.6681C45.7906 26.1027 45.7281 26.4811 45.5564 26.8596C45.4783 27.0278 45.4783 27.196 45.4783 27.3783C45.4783 27.5324 45.5408 27.7007 45.4939 27.8268C45.3222 28.3875 45.3534 29.0043 45.0724 29.551C45.01 29.6771 44.8851 29.7893 44.6977 29.6631C44.6353 29.551 44.6665 29.4388 44.6821 29.3267C45.0256 27.995 45.2441 26.6494 45.3534 25.2897C45.369 25.1775 45.369 25.0514 45.3534 24.9392C45.3534 24.8691 45.3378 24.799 45.2754 24.729C45.1036 24.6449 44.9007 24.6869 44.7133 24.7009C43.4488 24.8551 42.1998 25.0093 40.9196 25.0093C40.7323 25.0093 40.5606 25.0233 40.3888 24.9532C40.342 24.9392 40.3108 24.9112 40.2796 24.8691C40.2171 24.757 40.2015 24.6449 40.2171 24.5327C40.2327 23.7197 40.1234 22.9207 39.9985 22.1077C39.9985 21.9815 39.9985 21.8554 40.0454 21.7292Z" fill="#A52A1C"/>
<path d="M40.0454 21.7295C40.2328 22.108 40.2016 22.5145 40.2796 22.907C40.3889 23.5658 40.3889 24.2246 40.3733 24.8834C40.2484 25.0096 40.0767 24.9956 39.9049 24.9956C37.8442 25.0376 35.8146 24.8414 33.8007 24.505C33.6133 24.4769 33.426 24.4349 33.2543 24.3367C33.2074 24.3227 33.1762 24.2947 33.145 24.2667C32.9576 23.762 32.7703 23.2574 32.9732 22.7107C34.1441 22.6687 35.315 22.5705 36.4703 22.4163C36.5328 22.4023 38.8121 21.9818 39.8737 21.7435C39.9205 21.7435 39.983 21.7435 40.0454 21.7295Z" fill="#AC5032"/>
<path d="M45.2754 20.3277C45.2442 20.1315 45.0256 19.9913 44.8071 20.0474C45.1349 19.8651 45.3847 19.753 45.4784 19.7109C45.6657 19.767 45.6969 19.8791 45.7281 19.9913C46.0872 21.365 46.3526 22.7387 46.4619 24.1404C46.5712 25.4861 46.54 26.8038 46.3995 28.1494C46.337 28.7662 46.1965 29.369 46.1341 29.9857C45.6189 30.1119 45.1661 29.9437 44.7134 29.7194C45.0881 29.5792 45.4471 29.8315 45.9155 29.7614C46.3058 28.0653 46.3682 26.3272 46.2902 24.589C45.5408 24.4348 45.5408 24.4348 45.5564 23.748C45.5564 23.1452 45.4003 21.1547 45.2754 20.3277Z" fill="#771E12"/>
<path d="M7.86914 39.9375C8.24383 40.2599 8.68096 40.6103 8.9932 40.9608C8.79024 41.0589 8.66535 40.9468 8.52484 40.9187C8.47801 40.6804 8.27505 40.4561 8.11893 40.2879C8.04087 40.1898 7.88475 40.0917 7.86914 39.9375Z" fill="#191611"/>
<path d="M33.1917 24.2666C35.5491 24.7572 37.9377 24.9254 40.3576 24.8834V24.8974C40.5605 25.1076 40.4825 25.36 40.4981 25.5983C40.5137 25.9347 40.4981 26.2711 40.42 26.6075C40.3888 26.7337 40.3888 26.9019 40.139 26.8598C39.1242 26.7757 38.2656 27.0421 37.5787 27.7149C37.1415 28.1494 36.9698 28.6541 37.1884 29.2288C37.3445 29.8596 37.8284 30.3081 38.2656 30.7707C38.5154 31.1071 38.8744 31.3875 39.0462 31.7659C39.093 32.0323 38.9681 32.2706 38.8588 32.5089C38.1251 34.0788 37.204 35.5366 36.0487 36.8823C34.3938 38.8027 32.3955 40.3726 30.0537 41.5781C28.6174 42.3211 27.1187 42.8677 25.4794 43.078C24.9174 43.1481 24.3553 43.1901 23.7933 43.05C23.7621 43.0079 23.7621 42.9518 23.7933 42.9238C24.1056 42.6435 24.2305 42.279 24.3553 41.9146C24.5427 41.6903 24.8393 41.6062 25.0891 41.48C27.4309 40.2325 29.2575 38.5504 30.6626 36.4618C31.4744 35.2423 32.1145 33.9667 32.536 32.593C32.5672 32.5369 32.5984 32.4948 32.6453 32.4668C33.1605 32.2706 33.7069 32.1584 34.1909 31.9341C34.3001 31.8921 34.4094 31.8921 34.5343 31.9341C34.6592 31.9902 34.7217 32.0883 34.8153 32.1724C35.3149 32.6771 36.0955 32.7471 36.6107 32.3126C37.1259 31.8921 37.1415 31.1912 36.6263 30.6866C36.5795 30.6305 36.517 30.5885 36.4702 30.5324C36.3765 30.3922 36.4078 30.238 36.4234 30.0979C36.4546 29.8596 36.4858 29.5932 36.3141 29.397C36.0487 29.0606 35.9238 28.6821 35.9238 28.2756C35.674 27.3224 34.6748 26.5655 33.6132 26.5234C33.5195 26.5234 33.3634 26.5094 33.2541 26.5234C33.1605 26.4393 33.2385 26.2571 33.2385 26.1449C33.2541 25.6403 33.1605 25.1357 33.1136 24.6311C33.098 24.4769 33.0824 24.3507 33.1917 24.2666Z" fill="#EC6A46"/>
<path d="M47.2269 32.1586C46.6024 32.4109 46.0091 32.7193 45.3222 32.8034C44.3543 32.9295 43.4176 32.9015 42.4808 32.6492C41.1226 32.2847 39.9829 31.6119 38.9213 30.7989C38.5935 30.5466 38.1719 30.2382 38.0314 29.9298C38.5154 28.6542 40.342 27.9674 41.6846 28.6122C42.153 28.8364 42.5745 29.1168 42.9804 29.4392C43.7298 30.0139 44.4167 30.6587 45.2598 31.1213C46.0872 31.5698 46.9615 31.6539 47.867 31.3596C47.9762 31.3175 48.1011 31.2474 48.226 31.3315C47.9606 31.668 47.5391 31.8642 47.2269 32.1586Z" fill="#59311E"/>
<path d="M40.1859 26.8595C40.2327 26.6632 40.3264 26.3548 40.3576 26.1025C40.4045 25.71 40.3733 25.3035 40.3733 24.897C42.075 24.9391 43.761 24.6587 45.5252 24.5186C45.4783 26.3128 45.1973 27.9949 44.729 29.6489C44.6821 29.691 44.6197 29.691 44.5729 29.663C43.7298 29.2845 43.1209 28.6397 42.434 28.107C41.9501 27.7285 41.4505 27.3501 40.8728 27.0978C40.623 26.9856 40.4201 26.9436 40.1859 26.8595Z" fill="#E43727"/>
<path d="M48.226 31.317C46.8834 31.8917 45.6969 31.6114 44.5885 30.8264C43.761 30.2377 43.0273 29.5368 42.153 28.9901C40.8416 28.1491 39.5927 28.3593 38.5154 29.2985C38.2969 29.4807 38.172 29.5648 38.0159 29.9293C37.407 29.1443 37.3133 28.5836 37.7817 28.079C38.3905 27.4061 39.5146 26.9576 40.5762 27.4061C41.0914 27.6304 41.5598 27.9108 41.9813 28.2752C42.6994 28.878 43.402 29.5088 44.2606 29.9573C45.2598 30.49 46.2902 30.6162 47.3674 30.0975C47.9294 29.8172 48.3666 29.4247 48.7725 29.0041C49.1315 28.6257 49.5062 28.1631 49.8497 27.7005C49.8809 27.6585 49.9121 27.6304 49.9434 27.5884C49.9746 27.5323 50.0526 27.4762 50.1619 27.5183C50.24 27.5884 50.2712 27.5603 50.2244 27.6444C50.0995 28.0229 49.9434 28.3593 49.8965 28.5556C49.6467 29.0041 49.475 29.4807 49.272 29.9573C48.9754 30.4339 48.6476 30.8965 48.226 31.317Z" fill="#7B412A"/>
<path d="M44.5571 29.6488C44.604 29.6488 44.6664 29.6488 44.7132 29.6348C44.7913 29.6207 44.9474 29.6488 44.9162 29.5366C44.8538 29.3124 45.0879 29.3824 45.166 29.2843C45.0879 28.8918 44.9943 28.4713 45.3533 28.1209C45.4314 28.0508 45.369 27.9527 45.369 27.8545C45.3377 27.42 45.2909 26.9995 45.5251 26.5649C45.6344 26.3687 45.6968 26.0883 45.6031 25.822C45.5563 25.6818 45.5095 25.5136 45.65 25.3875C45.8373 25.3734 45.7592 25.5697 45.931 25.6117C45.9466 25.3314 45.9622 25.0651 45.9778 24.7987C45.7905 24.7006 45.3377 24.224 45.3221 24.1399C45.3065 24.0558 45.4782 24.196 45.5875 24.3081C45.8061 24.5464 46.2276 24.5604 46.3993 24.4623C46.493 26.2706 46.3993 28.1069 45.9934 29.9712C45.5407 29.8871 45.1192 29.803 44.6976 29.7189C44.6664 29.7048 44.6196 29.6768 44.5571 29.6488Z" fill="#A52A1C"/>
<path d="M49.2407 29.9291C49.3344 29.4244 49.5217 28.9479 49.8652 28.5273C49.7247 29.0179 49.4281 29.6487 49.2407 29.9291Z" fill="#7B412A"/>
<path d="M49.756 28.864C49.756 28.8079 50.0839 27.7285 50.0839 27.6865C49.9902 27.6024 49.8966 27.6725 49.8185 27.6865C49.9122 27.5603 50.0995 27.4061 50.1932 27.252C50.3649 27.5744 49.8809 28.6116 49.756 28.864Z" fill="#7B412A"/>
<path d="M19.0005 43.2316C19.1411 43.1895 19.1879 43.2876 19.2347 43.3717C19.7343 44.1427 20.5617 44.5071 21.4204 44.8716C22.2947 45.236 23.2158 45.4743 24.1837 45.5444C25.5263 45.6566 26.869 45.6005 28.196 45.3061C31.0373 44.6894 33.5196 43.4138 35.8146 41.8438C37.5319 40.6523 39.0307 39.2506 40.3577 37.6947C41.1383 36.7835 41.7627 35.8023 42.4184 34.8211C42.5277 34.6669 42.6214 34.4987 42.6214 34.2604C42.3872 34.0361 42.0281 33.966 41.7315 33.8259C41.4349 33.6857 41.1539 33.5595 40.8885 33.3773C40.7792 33.3072 40.6387 33.2371 40.6699 33.0829C40.7948 32.9988 40.9197 33.0549 41.029 33.111C41.6847 33.5175 42.4497 33.7277 43.121 34.1202C43.605 34.2884 44.1201 34.3024 44.6197 34.4707C44.6041 34.6809 44.5261 34.8351 44.4324 34.9893C44.2294 35.4659 43.9484 35.9145 43.7299 36.391C42.7307 38.1292 41.4973 39.6992 40.0454 41.157C38.8433 42.3765 37.4695 43.4138 36.0176 44.367C35.034 45.0118 33.9724 45.5444 32.8952 46.035C31.2871 46.7359 29.6167 47.2125 27.8369 47.3807C27.1656 47.4228 26.4943 47.4228 25.823 47.3807C23.3563 47.1284 21.3111 46.1612 19.7655 44.409C19.4689 44.0866 19.0005 43.3016 19.0005 43.2316Z" fill="#A3271A"/>
<path d="M43.7142 36.3637C43.8703 35.859 44.1357 35.4105 44.4167 34.9619C44.3543 35.3404 44.1201 35.6628 43.9484 36.0132C43.8859 36.1254 43.8391 36.2515 43.7922 36.3637C43.761 36.3637 43.7454 36.3637 43.7142 36.3637Z" fill="#731D13"/>
<path d="M28.9609 22.5566C29.4293 22.5987 29.882 22.6267 30.366 22.6688C30.8968 24.0425 31.1778 25.4583 31.2715 26.9301C30.085 27.4487 28.9921 28.1216 27.6495 28.3038C26.5411 28.458 25.5731 28.1496 24.7457 27.4908C24.168 27.0422 23.7309 26.4955 23.2938 25.9489C23.1689 25.7947 23.0284 25.6265 22.8566 25.5003C22.5912 25.29 22.3102 25.3741 22.2166 25.6965C22.1385 25.9629 22.1853 26.2292 22.2478 26.4955C22.7786 28.7103 24.2929 30.1681 26.6035 30.9811C27.9774 31.4717 29.4137 31.5979 30.9592 31.4437C30.5846 33.1258 29.882 34.6397 28.8048 36.0134C27.5246 37.6534 25.9166 38.929 23.7778 39.6579C23.6997 39.1253 23.4967 38.6767 23.0908 38.3263C21.998 37.3591 20.2807 37.4432 19.141 38.5505C18.2043 39.4617 17.9701 40.5831 18.1262 41.7746C18.2043 42.3353 18.3136 42.896 18.6258 43.4146C18.8756 44.0734 19.344 44.6201 19.8435 45.1387C20.8583 46.148 22.0917 46.8769 23.528 47.3255C23.4811 47.3956 23.4031 47.3815 23.325 47.3956C22.1073 47.4096 20.9052 47.2834 19.7343 46.9049C19.422 46.7508 19.0161 46.7788 18.7819 46.4844C18.2511 46.162 17.6579 45.9097 17.1427 45.5593C15.519 44.4799 14.0515 43.2744 13.1929 41.6064C12.4435 40.1766 12.5372 38.6767 13.7861 37.6534C14.5043 37.0647 15.4098 36.7984 16.3465 36.6161C17.5642 36.3778 18.8132 36.3919 20.0309 36.1676C21.0925 35.9713 22.1385 35.691 22.9347 34.9901C23.8402 34.1911 24.0588 33.2099 23.7153 32.1306C23.4031 31.1213 22.7474 30.2803 22.1541 29.4112C21.6077 28.5982 21.1237 27.7711 21.1237 26.7759C21.1393 25.3601 22.3571 24.1266 23.9339 23.9163C24.6364 23.8182 25.3077 23.9444 25.979 24.0285C27.3373 24.1827 28.0554 23.8883 28.6955 22.809C28.7423 22.6828 28.8048 22.5707 28.9609 22.5566Z" fill="#FCEFA8"/>
<path d="M18.7663 46.4424C19.0785 46.5826 19.422 46.6667 19.7186 46.8629C19.219 46.7928 18.7507 46.6386 18.2979 46.4424C18.454 46.4564 18.6102 46.4564 18.7663 46.4424Z" fill="#F4B740"/>
<path d="M10.976 42.6016C11.257 42.7137 11.4755 42.8959 11.6941 43.0922C11.3663 43.0221 11.1165 42.8819 10.976 42.6016Z" fill="#3A280E"/>
<path d="M25.7917 47.3672C26.463 47.3672 27.1343 47.3672 27.8056 47.3672C27.1343 47.4653 26.463 47.4653 25.7917 47.3672Z" fill="#1C1A16"/>
<path d="M43.0116 34.191C42.7774 33.9808 42.4652 33.8827 42.1685 33.7705C41.6377 33.5743 41.2006 33.2519 40.6698 33.0697C40.5293 33.1257 40.42 33.0416 40.3107 32.9856C39.858 32.7332 39.4833 32.3968 39.1242 32.0604C39.0305 31.9763 38.9837 31.8642 38.9837 31.752C38.9837 31.6399 38.9837 31.5418 39.1086 31.4717C39.9048 31.9763 40.6854 32.4809 41.6065 32.7893C42.1529 33.0416 42.7462 33.1257 43.355 33.2238C43.355 33.6163 43.1833 33.9107 43.0116 34.191Z" fill="#98271A"/>
<path d="M43.0116 34.1905C43.1209 33.9662 43.2302 33.6718 43.2302 33.3354C42.6682 33.1812 42.0905 33.1392 41.6066 32.8027C42.1998 32.9429 42.8087 33.0831 43.4019 33.2233C44.0264 33.3634 44.4636 33.3494 45.0256 33.2793C45.1661 33.4475 45.01 33.5737 44.9787 33.7279C44.7914 34.1484 44.7602 34.611 44.4323 34.9895C44.4792 34.8493 44.5104 34.7091 44.5572 34.5409C44.0264 34.4147 43.5112 34.3587 43.0116 34.1905Z" fill="#731D13"/>
<path d="M39.1242 31.4717C39.093 31.5558 39.0774 31.654 39.0462 31.7381C39.0305 31.7661 38.9993 31.7661 38.9681 31.7381C38.7183 31.4157 38.4217 31.1213 38.2656 30.7568C38.5466 31.0092 38.8276 31.2334 39.1242 31.4717Z" fill="#9E4631"/>
<path d="M7.61935 20.4961C7.43201 20.6923 7.43201 20.6923 7.21344 20.454C7.36956 20.2858 7.47884 20.5381 7.61935 20.4961C7.61935 20.482 7.61935 20.4961 7.61935 20.4961Z" fill="#1F1D18"/>
<path d="M38.9681 31.766C39.0149 31.752 38.9993 31.752 39.0462 31.752C39.4052 32.2706 39.9048 32.6351 40.4512 32.9575C40.5761 33.0275 40.6854 33.0976 40.7947 33.1958C41.2162 33.5322 41.747 33.7144 42.2466 33.9387C42.4184 34.0088 42.6057 34.0648 42.7774 34.205C42.7462 34.5975 42.4808 34.9059 42.2778 35.2423C41.466 36.588 40.4669 37.8215 39.3584 38.9709C38.5154 39.84 37.5943 40.639 36.6263 41.396C35.1276 42.5594 33.4727 43.4986 31.7086 44.2976C30.3035 44.9284 28.8204 45.4049 27.2592 45.6152C25.495 45.8535 23.7309 45.7974 22.0292 45.2367C21.1081 44.9284 20.2182 44.5499 19.5 43.9191C19.2971 43.7369 19.1722 43.4846 19.0005 43.2603C18.454 42.1249 18.2979 40.9614 18.7663 39.7699C19.141 38.8448 20.2494 37.9757 21.592 38.0738C22.4195 38.1439 23.2625 38.9008 23.2937 39.6578C23.2937 39.826 23.325 40.0222 23.4499 40.1764C23.8714 40.1344 24.2461 39.9101 24.6364 39.7559C26.7284 38.8868 28.2896 37.4851 29.5073 35.7609C30.0693 34.976 30.4908 34.1209 30.8499 33.2518C30.9748 33.0416 30.9592 32.7332 31.287 32.6771C31.7086 32.607 32.1301 32.4108 32.5672 32.621C32.4892 33.2238 32.2081 33.7845 31.9584 34.3452C31.1778 36.0133 30.1474 37.5131 28.8047 38.8728C27.5402 40.1484 26.057 41.1577 24.3866 41.9426C24.2461 41.9426 24.2305 41.8305 24.1992 41.7464C23.9182 41.0736 23.3093 40.7932 22.5756 40.7371C21.8887 40.6811 21.2642 40.8773 20.8114 41.3819C20.4211 41.8165 20.468 42.4052 20.8895 42.8117C21.514 43.4145 22.5444 43.5546 23.403 43.1762C23.5279 43.1201 23.6216 42.9939 23.7933 43.064C26.8064 43.1902 29.3199 42.0408 31.693 40.5549C32.7858 39.8681 33.7693 39.0831 34.6748 38.214C36.2985 36.6581 37.6255 34.9199 38.5466 32.9434C38.7027 32.5229 38.9369 32.1865 38.9681 31.766Z" fill="#E43727"/>
<path d="M23.6841 28.5279C23.0284 27.757 22.7006 26.8879 22.5757 25.8506C22.8411 26.0188 22.966 26.173 23.1065 26.3552C23.6217 27.0421 24.1993 27.6588 24.9643 28.1214C26.2133 28.8643 27.5247 28.9204 28.8985 28.4018C29.804 28.0653 30.6471 27.6308 31.5213 27.2523C32.1302 27 32.7547 26.8318 33.426 26.8458C34.2378 26.8598 35.4087 27.5747 35.4555 28.2476C35.4712 28.3317 35.518 28.7101 35.4087 28.8503C35.3619 28.9064 35.2682 28.4018 35.2057 28.3877C34.9403 28.3036 34.6749 28.2336 34.3783 28.2195C33.5665 28.1635 32.8483 28.3877 32.1458 28.6961C31.3496 29.0466 30.5534 29.425 29.726 29.7194C28.9922 29.9717 28.2428 30.0418 27.4778 29.9577C26.3226 29.8315 25.2297 29.5091 24.2462 28.9484C24.0276 28.8083 23.8715 28.6541 23.6841 28.5279Z" fill="#7B422A"/>
<path d="M23.6841 28.5274C24.0901 28.7377 24.4804 28.948 24.9019 29.1442C25.9635 29.6208 27.1032 29.8871 28.3053 29.8591C29.039 29.8451 29.7104 29.6208 30.3661 29.3545C31.2559 28.99 32.099 28.5134 33.0357 28.2331C33.7382 28.0228 34.4876 27.9948 35.2058 28.2611C35.237 28.2751 35.2526 28.2891 35.2838 28.3032C35.4399 28.4013 35.5336 28.5835 35.4555 28.7517C35.4087 28.8638 35.3463 28.976 35.2526 29.0741C34.7218 29.7189 33.9724 30.1254 33.1762 30.4478C31.9897 30.9244 30.7407 31.1767 29.4449 31.1066C28.1492 31.0366 26.9314 30.7562 25.7761 30.1815C25.0736 29.8451 23.7466 28.6536 23.6841 28.5274Z" fill="#59311E"/>
<path d="M35.9239 28.2471C35.9707 28.6536 36.2673 28.7657 36.4234 29.2984C36.5171 29.6909 36.5483 29.9712 36.5171 30.1534C36.5015 30.2796 36.4859 30.3777 36.5327 30.4899C36.3922 30.574 36.2829 30.4899 36.1737 30.4478C35.3462 30.1815 34.5344 30.7001 34.55 31.4851C34.55 31.6393 34.6437 31.8075 34.5032 31.9617C34.2066 32.0318 34.0192 32.0878 33.785 32.1719C33.4103 32.2981 32.9576 32.4943 32.5673 32.5784C32.5517 32.5504 32.5829 32.4383 32.5985 32.3962C32.7234 31.8916 32.7546 31.3729 33.0357 30.9104C33.8006 30.574 34.5656 30.2516 35.1901 29.7049C35.6585 29.3124 35.9551 28.8498 35.9239 28.2471Z" fill="#9E492D"/>
<path d="M33.1917 24.2669C33.2541 24.9817 33.3947 25.7527 33.3478 26.4676C32.8014 26.5237 32.255 26.5517 31.6773 26.7479C31.5993 25.8648 31.4744 25.0518 31.3027 24.2528C31.2402 24.1407 31.2558 24.0286 31.3027 23.8604C31.9584 23.8604 32.5672 24.0566 33.1761 24.2528L33.1917 24.2669Z" fill="#E43727"/>
<path d="M33.1917 24.2525C32.5673 24.2665 32.0052 23.9862 31.3964 23.9441C31.2715 24.0282 31.3495 24.1544 31.3183 24.2665C31.131 23.7759 31.0841 23.2573 30.8187 22.7246C31.5837 22.7246 32.2706 22.7246 32.9576 22.7246C32.9732 23.2433 33.0825 23.7479 33.1917 24.2525Z" fill="#A52B1C"/>
<path d="M33.0357 30.9111C32.942 31.4438 32.5986 32.5512 32.5673 32.5792C32.1302 32.5792 31.7087 32.6773 31.2872 32.7194C30.9749 32.7614 31.053 33.0838 30.85 33.21C30.9905 32.6493 31.2716 32.1166 31.3652 31.5279C31.3965 31.3737 31.537 31.2896 31.6931 31.2616C32.1614 31.2195 32.5986 31.0373 33.0357 30.9111Z" fill="#962719"/>
<path d="M23.7777 43.0216C22.8253 43.6523 21.5764 43.5823 20.8114 42.8533C20.2962 42.3627 20.2962 41.6759 20.7958 41.1853C21.6701 40.3302 23.3561 40.4283 24.1367 41.3395C24.2929 41.5217 24.3865 41.6338 24.3865 41.9142C24.3865 42.3627 24.168 42.7272 23.7777 43.0216Z" fill="#F09B81"/>
<path d="M34.5032 31.9616C34.2847 31.1346 34.5188 30.63 35.2994 30.3496C35.7366 30.1814 36.1581 30.2936 36.5484 30.4898C37.0323 30.8403 37.2197 31.2748 37.048 31.8215C36.8918 32.2981 36.5328 32.5924 35.9707 32.6625C35.2994 32.7466 34.8155 32.4943 34.5032 31.9616Z" fill="#211E1C"/>
<path d="M34.4407 33.4758C34.2534 33.3075 34.1129 33.1253 34.0036 32.9151C33.9724 32.845 33.9411 32.7749 33.9255 32.7048C33.9724 32.5506 34.066 32.4945 34.1909 32.5226C34.3314 32.5646 34.3627 32.6768 34.4095 32.7609C34.9403 33.644 36.0488 33.8542 36.9543 33.2515C37.2353 33.0552 37.4694 33.0272 37.4538 33.2234C37.3914 33.7141 35.877 34.2187 35.0496 33.8542C34.8154 33.7561 34.6125 33.63 34.4407 33.4758Z" fill="#281D16"/>
<path d="M27.8211 43.9752C27.8211 44.4378 27.462 44.7742 26.9468 44.7742C26.416 44.7742 26.0257 44.4237 26.0413 43.9612C26.0413 43.5406 26.4473 43.2182 26.9312 43.2182C27.462 43.2042 27.8211 43.5126 27.8211 43.9752Z" fill="#EE9980"/>
<path d="M35.7677 32.3126C35.2681 32.3126 34.8466 31.9482 34.831 31.4996C34.8154 31.051 35.2369 30.6586 35.7209 30.6586C36.2204 30.6445 36.6888 31.051 36.6732 31.4856C36.6888 31.9341 36.2673 32.2986 35.7677 32.3126Z" fill="#FCFCFC"/>
</svg>
